%TF.GenerationSoftware,KiCad,Pcbnew,(6.0.5)*%
%TF.CreationDate,2022-05-16T17:43:26-07:00*%
%TF.ProjectId,hawkeye_driver,6861776b-6579-4655-9f64-72697665722e,A*%
%TF.SameCoordinates,Original*%
%TF.FileFunction,Copper,L2,Bot*%
%TF.FilePolarity,Positive*%
%FSLAX46Y46*%
G04 Gerber Fmt 4.6, Leading zero omitted, Abs format (unit mm)*
G04 Created by KiCad (PCBNEW (6.0.5)) date 2022-05-16 17:43:26*
%MOMM*%
%LPD*%
G01*
G04 APERTURE LIST*
%TA.AperFunction,ComponentPad*%
%ADD10C,1.600000*%
%TD*%
%TA.AperFunction,ComponentPad*%
%ADD11O,1.600000X1.600000*%
%TD*%
%TA.AperFunction,ComponentPad*%
%ADD12O,1.600000X1.200000*%
%TD*%
%TA.AperFunction,ComponentPad*%
%ADD13O,1.200000X1.200000*%
%TD*%
%TA.AperFunction,ComponentPad*%
%ADD14C,1.400000*%
%TD*%
%TA.AperFunction,ComponentPad*%
%ADD15R,1.400000X1.400000*%
%TD*%
%TA.AperFunction,ComponentPad*%
%ADD16R,1.700000X1.700000*%
%TD*%
%TA.AperFunction,ComponentPad*%
%ADD17O,1.700000X1.700000*%
%TD*%
%TA.AperFunction,ComponentPad*%
%ADD18R,2.400000X2.400000*%
%TD*%
%TA.AperFunction,ComponentPad*%
%ADD19C,2.400000*%
%TD*%
%TA.AperFunction,ComponentPad*%
%ADD20C,6.400000*%
%TD*%
%TA.AperFunction,ViaPad*%
%ADD21C,0.800000*%
%TD*%
%TA.AperFunction,Conductor*%
%ADD22C,0.316555*%
%TD*%
%TA.AperFunction,Conductor*%
%ADD23C,0.250000*%
%TD*%
G04 APERTURE END LIST*
D10*
%TO.P,R17,1*%
%TO.N,Net-(R17-Pad1)*%
X172720000Y-93980000D03*
D11*
%TO.P,R17,2*%
%TO.N,Net-(Q1-Pad2)*%
X172720000Y-88900000D03*
%TD*%
D10*
%TO.P,R14,1*%
%TO.N,Net-(Q1-Pad2)*%
X167640000Y-88900000D03*
D11*
%TO.P,R14,2*%
%TO.N,GND*%
X167640000Y-93980000D03*
%TD*%
D12*
%TO.P,R4,1*%
%TO.N,Net-(Q1-Pad1)*%
X132080000Y-101600000D03*
D13*
%TO.P,R4,2*%
%TO.N,VCC*%
X134620000Y-104140000D03*
%TO.P,R4,3*%
%TO.N,N/C*%
X137160000Y-101600000D03*
%TD*%
D12*
%TO.P,R2,1*%
%TO.N,Net-(Q1-Pad1)*%
X147320000Y-91440000D03*
D13*
%TO.P,R2,2*%
%TO.N,VCC*%
X149860000Y-93980000D03*
%TO.P,R2,3*%
%TO.N,N/C*%
X152400000Y-91440000D03*
%TD*%
D10*
%TO.P,R18,1*%
%TO.N,Net-(R18-Pad1)*%
X172720000Y-83820000D03*
D11*
%TO.P,R18,2*%
%TO.N,Net-(Q2-Pad2)*%
X172720000Y-78740000D03*
%TD*%
D14*
%TO.P,Q3,1,D*%
%TO.N,Net-(Q3-Pad1)*%
X163830000Y-108742500D03*
D15*
X161290000Y-108742500D03*
D14*
%TO.P,Q3,2,G*%
%TO.N,Net-(Q3-Pad2)*%
X163830000Y-99537500D03*
%TO.P,Q3,3,S*%
%TO.N,GND*%
X161290000Y-99537500D03*
%TD*%
D12*
%TO.P,R9,1*%
%TO.N,Net-(Q2-Pad1)*%
X152400000Y-101600000D03*
D13*
%TO.P,R9,2*%
%TO.N,VCC*%
X154940000Y-104140000D03*
%TO.P,R9,3*%
%TO.N,N/C*%
X157480000Y-101600000D03*
%TD*%
D15*
%TO.P,Q2,1,D*%
%TO.N,Net-(Q2-Pad1)*%
X161290000Y-83342500D03*
D14*
X163830000Y-83342500D03*
%TO.P,Q2,2,G*%
%TO.N,Net-(Q2-Pad2)*%
X163830000Y-74137500D03*
%TO.P,Q2,3,S*%
%TO.N,GND*%
X161290000Y-74137500D03*
%TD*%
D12*
%TO.P,R5,1*%
%TO.N,Net-(Q1-Pad1)*%
X127000000Y-91440000D03*
D13*
%TO.P,R5,2*%
%TO.N,VCC*%
X129540000Y-93980000D03*
%TO.P,R5,3*%
%TO.N,N/C*%
X132080000Y-91440000D03*
%TD*%
D10*
%TO.P,R21,1*%
%TO.N,/4.78 V (req. > 4V)*%
X110998000Y-101346000D03*
D11*
%TO.P,R21,2*%
%TO.N,GND*%
X110998000Y-106426000D03*
%TD*%
D15*
%TO.P,Q1,1,D*%
%TO.N,Net-(Q1-Pad1)*%
X161290000Y-96042500D03*
D14*
X163830000Y-96042500D03*
%TO.P,Q1,2,G*%
%TO.N,Net-(Q1-Pad2)*%
X163830000Y-86837500D03*
%TO.P,Q1,3,S*%
%TO.N,GND*%
X161290000Y-86837500D03*
%TD*%
D12*
%TO.P,R10,1*%
%TO.N,Net-(Q2-Pad1)*%
X137160000Y-111760000D03*
D13*
%TO.P,R10,2*%
%TO.N,VCC*%
X139700000Y-114300000D03*
%TO.P,R10,3*%
%TO.N,N/C*%
X142240000Y-111760000D03*
%TD*%
D16*
%TO.P,J1,1,Pin_1*%
%TO.N,/SHIFT CLK*%
X127000000Y-111760000D03*
D17*
%TO.P,J1,2,Pin_2*%
%TO.N,/LATCH*%
X124460000Y-111760000D03*
%TO.P,J1,3,Pin_3*%
%TO.N,/SER IN*%
X121920000Y-111760000D03*
%TD*%
D10*
%TO.P,R20,1*%
%TO.N,VCC*%
X116078000Y-106426000D03*
D11*
%TO.P,R20,2*%
%TO.N,/4.78 V (req. > 4V)*%
X116078000Y-101346000D03*
%TD*%
D10*
%TO.P,R19,1*%
%TO.N,Net-(R19-Pad1)*%
X172720000Y-104140000D03*
D11*
%TO.P,R19,2*%
%TO.N,Net-(Q3-Pad2)*%
X172720000Y-99060000D03*
%TD*%
D12*
%TO.P,R3,1*%
%TO.N,Net-(Q1-Pad1)*%
X142240000Y-101600000D03*
D13*
%TO.P,R3,2*%
%TO.N,VCC*%
X144780000Y-104140000D03*
%TO.P,R3,3*%
%TO.N,N/C*%
X147320000Y-101600000D03*
%TD*%
D10*
%TO.P,R15,1*%
%TO.N,Net-(Q2-Pad2)*%
X167640000Y-78740000D03*
D11*
%TO.P,R15,2*%
%TO.N,GND*%
X167640000Y-83820000D03*
%TD*%
D18*
%TO.P,J2,1,Pin_1*%
%TO.N,VCC*%
X149860000Y-112395000D03*
D19*
%TO.P,J2,2,Pin_2*%
%TO.N,GND*%
X154860000Y-112395000D03*
%TD*%
D12*
%TO.P,R1,1*%
%TO.N,Net-(Q1-Pad1)*%
X142240000Y-81280000D03*
D13*
%TO.P,R1,2*%
%TO.N,VCC*%
X144780000Y-83820000D03*
%TO.P,R1,3*%
%TO.N,N/C*%
X147320000Y-81280000D03*
%TD*%
D20*
%TO.P,REF\u002A\u002A,1*%
%TO.N,N/C*%
X109220000Y-113665000D03*
%TD*%
D12*
%TO.P,R12,1*%
%TO.N,Net-(Q2-Pad1)*%
X121920000Y-81280000D03*
D13*
%TO.P,R12,2*%
%TO.N,VCC*%
X124460000Y-83820000D03*
%TO.P,R12,3*%
%TO.N,N/C*%
X127000000Y-81280000D03*
%TD*%
D12*
%TO.P,R11,1*%
%TO.N,Net-(Q2-Pad1)*%
X121920000Y-101600000D03*
D13*
%TO.P,R11,2*%
%TO.N,VCC*%
X124460000Y-104140000D03*
%TO.P,R11,3*%
%TO.N,N/C*%
X127000000Y-101600000D03*
%TD*%
D12*
%TO.P,R13,1*%
%TO.N,Net-(Q3-Pad1)*%
X137160000Y-91440000D03*
D13*
%TO.P,R13,2*%
%TO.N,VCC*%
X139700000Y-93980000D03*
%TO.P,R13,3*%
%TO.N,N/C*%
X142240000Y-91440000D03*
%TD*%
D20*
%TO.P,REF\u002A\u002A,1*%
%TO.N,N/C*%
X170180000Y-113665000D03*
%TD*%
%TO.P,REF\u002A\u002A,1*%
%TO.N,N/C*%
X170180000Y-69215000D03*
%TD*%
D12*
%TO.P,R8,1*%
%TO.N,Net-(Q2-Pad1)*%
X152400000Y-81280000D03*
D13*
%TO.P,R8,2*%
%TO.N,VCC*%
X154940000Y-83820000D03*
%TO.P,R8,3*%
%TO.N,N/C*%
X157480000Y-81280000D03*
%TD*%
D10*
%TO.P,R16,1*%
%TO.N,Net-(Q3-Pad2)*%
X167640000Y-99060000D03*
D11*
%TO.P,R16,2*%
%TO.N,GND*%
X167640000Y-104140000D03*
%TD*%
D20*
%TO.P,REF\u002A\u002A,1*%
%TO.N,N/C*%
X109220000Y-69215000D03*
%TD*%
D12*
%TO.P,R7,1*%
%TO.N,Net-(Q2-Pad1)*%
X137160000Y-71120000D03*
D13*
%TO.P,R7,2*%
%TO.N,VCC*%
X139700000Y-73660000D03*
%TO.P,R7,3*%
%TO.N,N/C*%
X142240000Y-71120000D03*
%TD*%
D12*
%TO.P,R6,1*%
%TO.N,Net-(Q1-Pad1)*%
X132080000Y-81280000D03*
D13*
%TO.P,R6,2*%
%TO.N,VCC*%
X134620000Y-83820000D03*
%TO.P,R6,3*%
%TO.N,N/C*%
X137160000Y-81280000D03*
%TD*%
D21*
%TO.N,Net-(R18-Pad1)*%
X118143121Y-94011498D03*
%TO.N,Net-(R17-Pad1)*%
X118745000Y-95250000D03*
%TO.N,Net-(R19-Pad1)*%
X109855000Y-93980000D03*
%TD*%
D22*
%TO.N,Net-(Q1-Pad1)*%
X134620000Y-78740000D02*
X132080000Y-81280000D01*
X158750000Y-96042500D02*
X151607500Y-88900000D01*
X161290000Y-96042500D02*
X163830000Y-96042500D01*
X147320000Y-91440000D02*
X142240000Y-86360000D01*
X161290000Y-96042500D02*
X158750000Y-96042500D01*
X151607500Y-88900000D02*
X149860000Y-88900000D01*
X149860000Y-88900000D02*
X147320000Y-91440000D01*
X139700000Y-78740000D02*
X134620000Y-78740000D01*
X127000000Y-96520000D02*
X132080000Y-101600000D01*
X132080000Y-86360000D02*
X127000000Y-91440000D01*
X127000000Y-91440000D02*
X127000000Y-96520000D01*
X139700000Y-99060000D02*
X134620000Y-99060000D01*
X134620000Y-99060000D02*
X132080000Y-101600000D01*
X142240000Y-81280000D02*
X139700000Y-78740000D01*
X132080000Y-81280000D02*
X132080000Y-86360000D01*
X142240000Y-101600000D02*
X139700000Y-99060000D01*
X142240000Y-86360000D02*
X142240000Y-81280000D01*
%TO.N,Net-(Q2-Pad1)*%
X139700000Y-111760000D02*
X147320000Y-104140000D01*
X132080000Y-71120000D02*
X121920000Y-81280000D01*
X147320000Y-104140000D02*
X149860000Y-104140000D01*
X121920000Y-81280000D02*
X121920000Y-101600000D01*
X155817018Y-83342500D02*
X153754518Y-81280000D01*
X137160000Y-111760000D02*
X139700000Y-111760000D01*
X121920000Y-101600000D02*
X121920000Y-103037838D01*
X125562162Y-106680000D02*
X132080000Y-106680000D01*
X132080000Y-106680000D02*
X137160000Y-111760000D01*
X152400000Y-81280000D02*
X144780000Y-73660000D01*
X139700000Y-71120000D02*
X137160000Y-71120000D01*
X161290000Y-83342500D02*
X163830000Y-83342500D01*
X149860000Y-104140000D02*
X152400000Y-101600000D01*
X121920000Y-103037838D02*
X125562162Y-106680000D01*
X137160000Y-71120000D02*
X132080000Y-71120000D01*
X153754518Y-81280000D02*
X152400000Y-81280000D01*
X142240000Y-73660000D02*
X139700000Y-71120000D01*
X161290000Y-83342500D02*
X155817018Y-83342500D01*
X144780000Y-73660000D02*
X142240000Y-73660000D01*
%TO.N,Net-(Q3-Pad1)*%
X161290000Y-107950000D02*
X152400000Y-99060000D01*
X152400000Y-99060000D02*
X147320000Y-99060000D01*
X147320000Y-99060000D02*
X139700000Y-91440000D01*
X161290000Y-108742500D02*
X161290000Y-107950000D01*
X139700000Y-91440000D02*
X137160000Y-91440000D01*
X161290000Y-108742500D02*
X163830000Y-108742500D01*
D23*
%TO.N,Net-(R18-Pad1)*%
X172720000Y-83820000D02*
X170180000Y-83820000D01*
X118111623Y-93980000D02*
X118143121Y-94011498D01*
X132529520Y-68130480D02*
X118110000Y-82550000D01*
X161613880Y-75253880D02*
X155886120Y-75253880D01*
X118110000Y-82550000D02*
X118110000Y-93980000D01*
X148762719Y-68130480D02*
X132529520Y-68130480D01*
X118110000Y-93980000D02*
X118111623Y-93980000D01*
X170180000Y-83820000D02*
X161613880Y-75253880D01*
X155794251Y-75162011D02*
X148762719Y-68130480D01*
%TO.N,Net-(R17-Pad1)*%
X118745000Y-93345000D02*
X118867632Y-93467632D01*
X172720000Y-86360000D02*
X167640000Y-86360000D01*
X119380000Y-82312532D02*
X118745000Y-82947532D01*
X162314511Y-82317989D02*
X148576522Y-68580000D01*
X167640000Y-85703622D02*
X164254367Y-82317989D01*
X118867632Y-93467632D02*
X118867632Y-95127368D01*
X173844511Y-87484511D02*
X172720000Y-86360000D01*
X164254367Y-82317989D02*
X162314511Y-82317989D01*
X167640000Y-86360000D02*
X167640000Y-85703622D01*
X118745000Y-82947532D02*
X118745000Y-93345000D01*
X172720000Y-93980000D02*
X173844511Y-92855489D01*
X133112532Y-68580000D02*
X119380000Y-82312532D01*
X118867632Y-95127368D02*
X118745000Y-95250000D01*
X148576522Y-68580000D02*
X133112532Y-68580000D01*
X173844511Y-92855489D02*
X173844511Y-87484511D01*
%TO.N,Net-(R19-Pad1)*%
X109855000Y-96520000D02*
X112386623Y-99051623D01*
X125328904Y-107129520D02*
X125362181Y-107162797D01*
X165100000Y-111760000D02*
X165100000Y-109220000D01*
X141007457Y-114300000D02*
X162560000Y-114300000D01*
X125362181Y-107162797D02*
X130022797Y-107162797D01*
X124909520Y-107129520D02*
X125328904Y-107129520D01*
X162560000Y-114300000D02*
X165100000Y-111760000D01*
X112386623Y-99051623D02*
X116831623Y-99051623D01*
X109855000Y-93980000D02*
X109855000Y-96520000D01*
X170180000Y-104140000D02*
X172720000Y-104140000D01*
X130022797Y-107162797D02*
X136235489Y-113375489D01*
X140082946Y-113375489D02*
X141007457Y-114300000D01*
X116831623Y-99051623D02*
X124909520Y-107129520D01*
X136235489Y-113375489D02*
X140082946Y-113375489D01*
X165100000Y-109220000D02*
X170180000Y-104140000D01*
%TO.N,/4.78 V (req. > 4V)*%
X116078000Y-101346000D02*
X110998000Y-101346000D01*
%TD*%
M02*
