G04 #@! TF.GenerationSoftware,KiCad,Pcbnew,(6.0.5)*
G04 #@! TF.CreationDate,2022-06-04T20:53:52-07:00*
G04 #@! TF.ProjectId,hawkeye_driver,6861776b-6579-4655-9f64-72697665722e,A*
G04 #@! TF.SameCoordinates,Original*
G04 #@! TF.FileFunction,Soldermask,Bot*
G04 #@! TF.FilePolarity,Negative*
%FSLAX46Y46*%
G04 Gerber Fmt 4.6, Leading zero omitted, Abs format (unit mm)*
G04 Created by KiCad (PCBNEW (6.0.5)) date 2022-06-04 20:53:52*
%MOMM*%
%LPD*%
G01*
G04 APERTURE LIST*
G04 Aperture macros list*
%AMRoundRect*
0 Rectangle with rounded corners*
0 $1 Rounding radius*
0 $2 $3 $4 $5 $6 $7 $8 $9 X,Y pos of 4 corners*
0 Add a 4 corners polygon primitive as box body*
4,1,4,$2,$3,$4,$5,$6,$7,$8,$9,$2,$3,0*
0 Add four circle primitives for the rounded corners*
1,1,$1+$1,$2,$3*
1,1,$1+$1,$4,$5*
1,1,$1+$1,$6,$7*
1,1,$1+$1,$8,$9*
0 Add four rect primitives between the rounded corners*
20,1,$1+$1,$2,$3,$4,$5,0*
20,1,$1+$1,$4,$5,$6,$7,0*
20,1,$1+$1,$6,$7,$8,$9,0*
20,1,$1+$1,$8,$9,$2,$3,0*%
G04 Aperture macros list end*
%ADD10R,1.400000X1.400000*%
%ADD11C,1.400000*%
%ADD12O,1.600000X1.200000*%
%ADD13O,1.200000X1.200000*%
%ADD14R,2.400000X2.400000*%
%ADD15C,2.400000*%
%ADD16C,6.400000*%
%ADD17RoundRect,0.250000X0.600000X-0.600000X0.600000X0.600000X-0.600000X0.600000X-0.600000X-0.600000X0*%
%ADD18C,1.700000*%
%ADD19RoundRect,0.250000X-0.625000X0.400000X-0.625000X-0.400000X0.625000X-0.400000X0.625000X0.400000X0*%
G04 APERTURE END LIST*
D10*
G04 #@! TO.C,Q2*
X163830000Y-74137500D03*
D11*
X161290000Y-74137500D03*
X161290000Y-83342500D03*
X163830000Y-83342500D03*
G04 #@! TD*
D10*
G04 #@! TO.C,Q1*
X163830000Y-99537500D03*
D11*
X161290000Y-99537500D03*
X161290000Y-108742500D03*
X163830000Y-108742500D03*
G04 #@! TD*
D10*
G04 #@! TO.C,Q3*
X163830000Y-86837500D03*
D11*
X161290000Y-86837500D03*
X161290000Y-96042500D03*
X163830000Y-96042500D03*
G04 #@! TD*
D12*
G04 #@! TO.C,R4*
X132080000Y-101600000D03*
D13*
X134620000Y-104140000D03*
X137160000Y-101600000D03*
G04 #@! TD*
D12*
G04 #@! TO.C,R2*
X147320000Y-91440000D03*
D13*
X149860000Y-93980000D03*
X152400000Y-91440000D03*
G04 #@! TD*
D12*
G04 #@! TO.C,R9*
X152400000Y-101600000D03*
D13*
X154940000Y-104140000D03*
X157480000Y-101600000D03*
G04 #@! TD*
D12*
G04 #@! TO.C,R5*
X127000000Y-91440000D03*
D13*
X129540000Y-93980000D03*
X132080000Y-91440000D03*
G04 #@! TD*
D12*
G04 #@! TO.C,R10*
X137160000Y-111760000D03*
D13*
X139700000Y-114300000D03*
X142240000Y-111760000D03*
G04 #@! TD*
D12*
G04 #@! TO.C,R3*
X142240000Y-101600000D03*
D13*
X144780000Y-104140000D03*
X147320000Y-101600000D03*
G04 #@! TD*
D14*
G04 #@! TO.C,J2*
X149860000Y-112395000D03*
D15*
X154860000Y-112395000D03*
G04 #@! TD*
D12*
G04 #@! TO.C,R1*
X142240000Y-81280000D03*
D13*
X144780000Y-83820000D03*
X147320000Y-81280000D03*
G04 #@! TD*
D16*
G04 #@! TO.C,REF\u002A\u002A*
X109220000Y-113665000D03*
G04 #@! TD*
D12*
G04 #@! TO.C,R12*
X121920000Y-81280000D03*
D13*
X124460000Y-83820000D03*
X127000000Y-81280000D03*
G04 #@! TD*
D12*
G04 #@! TO.C,R11*
X121920000Y-101600000D03*
D13*
X124460000Y-104140000D03*
X127000000Y-101600000D03*
G04 #@! TD*
D12*
G04 #@! TO.C,R13*
X137160000Y-91440000D03*
D13*
X139700000Y-93980000D03*
X142240000Y-91440000D03*
G04 #@! TD*
D16*
G04 #@! TO.C,REF\u002A\u002A*
X170180000Y-113665000D03*
G04 #@! TD*
G04 #@! TO.C,REF\u002A\u002A*
X170180000Y-69215000D03*
G04 #@! TD*
D12*
G04 #@! TO.C,R8*
X152400000Y-81280000D03*
D13*
X154940000Y-83820000D03*
X157480000Y-81280000D03*
G04 #@! TD*
D16*
G04 #@! TO.C,REF\u002A\u002A*
X109220000Y-69215000D03*
G04 #@! TD*
D17*
G04 #@! TO.C,J1*
X118745000Y-113030000D03*
D18*
X118745000Y-110490000D03*
X121285000Y-113030000D03*
X121285000Y-110490000D03*
X123825000Y-113030000D03*
X123825000Y-110490000D03*
X126365000Y-113030000D03*
X126365000Y-110490000D03*
X128905000Y-113030000D03*
X128905000Y-110490000D03*
G04 #@! TD*
D12*
G04 #@! TO.C,R7*
X137160000Y-71120000D03*
D13*
X139700000Y-73660000D03*
X142240000Y-71120000D03*
G04 #@! TD*
D12*
G04 #@! TO.C,R6*
X132080000Y-81280000D03*
D13*
X134620000Y-83820000D03*
X137160000Y-81280000D03*
G04 #@! TD*
D19*
G04 #@! TO.C,R17*
X170180000Y-100050000D03*
X170180000Y-103150000D03*
G04 #@! TD*
G04 #@! TO.C,R14*
X170180000Y-105130000D03*
X170180000Y-108230000D03*
G04 #@! TD*
G04 #@! TO.C,R18*
X170180000Y-74650000D03*
X170180000Y-77750000D03*
G04 #@! TD*
G04 #@! TO.C,R19*
X170180000Y-87350000D03*
X170180000Y-90450000D03*
G04 #@! TD*
G04 #@! TO.C,R15*
X170180000Y-79730000D03*
X170180000Y-82830000D03*
G04 #@! TD*
G04 #@! TO.C,R16*
X170180000Y-92430000D03*
X170180000Y-95530000D03*
G04 #@! TD*
M02*
