%TF.GenerationSoftware,KiCad,Pcbnew,(6.0.5)*%
%TF.CreationDate,2022-05-16T17:43:26-07:00*%
%TF.ProjectId,hawkeye_driver,6861776b-6579-4655-9f64-72697665722e,A*%
%TF.SameCoordinates,Original*%
%TF.FileFunction,Soldermask,Bot*%
%TF.FilePolarity,Negative*%
%FSLAX46Y46*%
G04 Gerber Fmt 4.6, Leading zero omitted, Abs format (unit mm)*
G04 Created by KiCad (PCBNEW (6.0.5)) date 2022-05-16 17:43:26*
%MOMM*%
%LPD*%
G01*
G04 APERTURE LIST*
%ADD10C,1.600000*%
%ADD11O,1.600000X1.600000*%
%ADD12O,1.600000X1.200000*%
%ADD13O,1.200000X1.200000*%
%ADD14R,1.700000X1.700000*%
%ADD15O,1.700000X1.700000*%
%ADD16R,2.400000X2.400000*%
%ADD17C,2.400000*%
%ADD18C,6.400000*%
G04 APERTURE END LIST*
D10*
%TO.C,R17*%
X172720000Y-93980000D03*
D11*
X172720000Y-88900000D03*
%TD*%
D10*
%TO.C,R14*%
X167640000Y-88900000D03*
D11*
X167640000Y-93980000D03*
%TD*%
D12*
%TO.C,R4*%
X132080000Y-101600000D03*
D13*
X134620000Y-104140000D03*
X137160000Y-101600000D03*
%TD*%
D12*
%TO.C,R2*%
X147320000Y-91440000D03*
D13*
X149860000Y-93980000D03*
X152400000Y-91440000D03*
%TD*%
D10*
%TO.C,R18*%
X172720000Y-83820000D03*
D11*
X172720000Y-78740000D03*
%TD*%
D12*
%TO.C,R9*%
X152400000Y-101600000D03*
D13*
X154940000Y-104140000D03*
X157480000Y-101600000D03*
%TD*%
D12*
%TO.C,R5*%
X127000000Y-91440000D03*
D13*
X129540000Y-93980000D03*
X132080000Y-91440000D03*
%TD*%
D10*
%TO.C,R21*%
X110998000Y-101346000D03*
D11*
X110998000Y-106426000D03*
%TD*%
D12*
%TO.C,R10*%
X137160000Y-111760000D03*
D13*
X139700000Y-114300000D03*
X142240000Y-111760000D03*
%TD*%
D14*
%TO.C,J1*%
X127000000Y-111760000D03*
D15*
X124460000Y-111760000D03*
X121920000Y-111760000D03*
%TD*%
D10*
%TO.C,R20*%
X116078000Y-106426000D03*
D11*
X116078000Y-101346000D03*
%TD*%
D10*
%TO.C,R19*%
X172720000Y-104140000D03*
D11*
X172720000Y-99060000D03*
%TD*%
D12*
%TO.C,R3*%
X142240000Y-101600000D03*
D13*
X144780000Y-104140000D03*
X147320000Y-101600000D03*
%TD*%
D10*
%TO.C,R15*%
X167640000Y-78740000D03*
D11*
X167640000Y-83820000D03*
%TD*%
D16*
%TO.C,J2*%
X149860000Y-112395000D03*
D17*
X154860000Y-112395000D03*
%TD*%
D12*
%TO.C,R1*%
X142240000Y-81280000D03*
D13*
X144780000Y-83820000D03*
X147320000Y-81280000D03*
%TD*%
D18*
%TO.C,REF\u002A\u002A*%
X109220000Y-113665000D03*
%TD*%
D12*
%TO.C,R12*%
X121920000Y-81280000D03*
D13*
X124460000Y-83820000D03*
X127000000Y-81280000D03*
%TD*%
D12*
%TO.C,R11*%
X121920000Y-101600000D03*
D13*
X124460000Y-104140000D03*
X127000000Y-101600000D03*
%TD*%
D12*
%TO.C,R13*%
X137160000Y-91440000D03*
D13*
X139700000Y-93980000D03*
X142240000Y-91440000D03*
%TD*%
D18*
%TO.C,REF\u002A\u002A*%
X170180000Y-113665000D03*
%TD*%
%TO.C,REF\u002A\u002A*%
X170180000Y-69215000D03*
%TD*%
D12*
%TO.C,R8*%
X152400000Y-81280000D03*
D13*
X154940000Y-83820000D03*
X157480000Y-81280000D03*
%TD*%
D10*
%TO.C,R16*%
X167640000Y-99060000D03*
D11*
X167640000Y-104140000D03*
%TD*%
D18*
%TO.C,REF\u002A\u002A*%
X109220000Y-69215000D03*
%TD*%
D12*
%TO.C,R7*%
X137160000Y-71120000D03*
D13*
X139700000Y-73660000D03*
X142240000Y-71120000D03*
%TD*%
D12*
%TO.C,R6*%
X132080000Y-81280000D03*
D13*
X134620000Y-83820000D03*
X137160000Y-81280000D03*
%TD*%
M02*
