%TF.GenerationSoftware,KiCad,Pcbnew,(6.0.5)*%
%TF.CreationDate,2022-05-16T17:43:26-07:00*%
%TF.ProjectId,hawkeye_driver,6861776b-6579-4655-9f64-72697665722e,A*%
%TF.SameCoordinates,Original*%
%TF.FileFunction,Legend,Top*%
%TF.FilePolarity,Positive*%
%FSLAX46Y46*%
G04 Gerber Fmt 4.6, Leading zero omitted, Abs format (unit mm)*
G04 Created by KiCad (PCBNEW (6.0.5)) date 2022-05-16 17:43:26*
%MOMM*%
%LPD*%
G01*
G04 APERTURE LIST*
%ADD10C,0.187500*%
%ADD11C,0.150000*%
%ADD12C,0.125000*%
%ADD13C,0.120000*%
%ADD14C,0.250000*%
G04 APERTURE END LIST*
D10*
X124799285Y-116458857D02*
X124799285Y-116816000D01*
X124049285Y-116816000D01*
X124585000Y-116244571D02*
X124585000Y-115887428D01*
X124799285Y-116316000D02*
X124049285Y-116066000D01*
X124799285Y-115816000D01*
X124049285Y-115673142D02*
X124049285Y-115244571D01*
X124799285Y-115458857D02*
X124049285Y-115458857D01*
X124727857Y-114566000D02*
X124763571Y-114601714D01*
X124799285Y-114708857D01*
X124799285Y-114780285D01*
X124763571Y-114887428D01*
X124692142Y-114958857D01*
X124620714Y-114994571D01*
X124477857Y-115030285D01*
X124370714Y-115030285D01*
X124227857Y-114994571D01*
X124156428Y-114958857D01*
X124085000Y-114887428D01*
X124049285Y-114780285D01*
X124049285Y-114708857D01*
X124085000Y-114601714D01*
X124120714Y-114566000D01*
X124799285Y-114244571D02*
X124049285Y-114244571D01*
X124406428Y-114244571D02*
X124406428Y-113816000D01*
X124799285Y-113816000D02*
X124049285Y-113816000D01*
X122223571Y-117355714D02*
X122259285Y-117248571D01*
X122259285Y-117070000D01*
X122223571Y-116998571D01*
X122187857Y-116962857D01*
X122116428Y-116927142D01*
X122045000Y-116927142D01*
X121973571Y-116962857D01*
X121937857Y-116998571D01*
X121902142Y-117070000D01*
X121866428Y-117212857D01*
X121830714Y-117284285D01*
X121795000Y-117320000D01*
X121723571Y-117355714D01*
X121652142Y-117355714D01*
X121580714Y-117320000D01*
X121545000Y-117284285D01*
X121509285Y-117212857D01*
X121509285Y-117034285D01*
X121545000Y-116927142D01*
X121866428Y-116605714D02*
X121866428Y-116355714D01*
X122259285Y-116248571D02*
X122259285Y-116605714D01*
X121509285Y-116605714D01*
X121509285Y-116248571D01*
X122259285Y-115498571D02*
X121902142Y-115748571D01*
X122259285Y-115927142D02*
X121509285Y-115927142D01*
X121509285Y-115641428D01*
X121545000Y-115570000D01*
X121580714Y-115534285D01*
X121652142Y-115498571D01*
X121759285Y-115498571D01*
X121830714Y-115534285D01*
X121866428Y-115570000D01*
X121902142Y-115641428D01*
X121902142Y-115927142D01*
X122330714Y-115355714D02*
X122330714Y-114784285D01*
X122259285Y-114605714D02*
X121509285Y-114605714D01*
X122259285Y-114248571D02*
X121509285Y-114248571D01*
X122259285Y-113820000D01*
X121509285Y-113820000D01*
X145081714Y-115413285D02*
X144938857Y-115413285D01*
X144867428Y-115449000D01*
X144831714Y-115484714D01*
X144760285Y-115591857D01*
X144724571Y-115734714D01*
X144724571Y-116020428D01*
X144760285Y-116091857D01*
X144796000Y-116127571D01*
X144867428Y-116163285D01*
X145010285Y-116163285D01*
X145081714Y-116127571D01*
X145117428Y-116091857D01*
X145153142Y-116020428D01*
X145153142Y-115841857D01*
X145117428Y-115770428D01*
X145081714Y-115734714D01*
X145010285Y-115699000D01*
X144867428Y-115699000D01*
X144796000Y-115734714D01*
X144760285Y-115770428D01*
X144724571Y-115841857D01*
X145474571Y-116091857D02*
X145510285Y-116127571D01*
X145474571Y-116163285D01*
X145438857Y-116127571D01*
X145474571Y-116091857D01*
X145474571Y-116163285D01*
X145760285Y-115413285D02*
X146260285Y-115413285D01*
X145938857Y-116163285D01*
X146438857Y-115413285D02*
X146688857Y-116163285D01*
X146938857Y-115413285D01*
X127267857Y-115254428D02*
X127303571Y-115290142D01*
X127339285Y-115397285D01*
X127339285Y-115468714D01*
X127303571Y-115575857D01*
X127232142Y-115647285D01*
X127160714Y-115683000D01*
X127017857Y-115718714D01*
X126910714Y-115718714D01*
X126767857Y-115683000D01*
X126696428Y-115647285D01*
X126625000Y-115575857D01*
X126589285Y-115468714D01*
X126589285Y-115397285D01*
X126625000Y-115290142D01*
X126660714Y-115254428D01*
X127339285Y-114575857D02*
X127339285Y-114933000D01*
X126589285Y-114933000D01*
X127339285Y-114325857D02*
X126589285Y-114325857D01*
X127339285Y-113897285D02*
X126910714Y-114218714D01*
X126589285Y-113897285D02*
X127017857Y-114325857D01*
X158178571Y-115449000D02*
X158107142Y-115413285D01*
X158000000Y-115413285D01*
X157892857Y-115449000D01*
X157821428Y-115520428D01*
X157785714Y-115591857D01*
X157750000Y-115734714D01*
X157750000Y-115841857D01*
X157785714Y-115984714D01*
X157821428Y-116056142D01*
X157892857Y-116127571D01*
X158000000Y-116163285D01*
X158071428Y-116163285D01*
X158178571Y-116127571D01*
X158214285Y-116091857D01*
X158214285Y-115841857D01*
X158071428Y-115841857D01*
X158535714Y-116163285D02*
X158535714Y-115413285D01*
X158964285Y-116163285D01*
X158964285Y-115413285D01*
X159321428Y-116163285D02*
X159321428Y-115413285D01*
X159500000Y-115413285D01*
X159607142Y-115449000D01*
X159678571Y-115520428D01*
X159714285Y-115591857D01*
X159750000Y-115734714D01*
X159750000Y-115841857D01*
X159714285Y-115984714D01*
X159678571Y-116056142D01*
X159607142Y-116127571D01*
X159500000Y-116163285D01*
X159321428Y-116163285D01*
D11*
%TO.C,R17*%
X172077142Y-96972380D02*
X171743809Y-96496190D01*
X171505714Y-96972380D02*
X171505714Y-95972380D01*
X171886666Y-95972380D01*
X171981904Y-96020000D01*
X172029523Y-96067619D01*
X172077142Y-96162857D01*
X172077142Y-96305714D01*
X172029523Y-96400952D01*
X171981904Y-96448571D01*
X171886666Y-96496190D01*
X171505714Y-96496190D01*
X173029523Y-96972380D02*
X172458095Y-96972380D01*
X172743809Y-96972380D02*
X172743809Y-95972380D01*
X172648571Y-96115238D01*
X172553333Y-96210476D01*
X172458095Y-96258095D01*
X173362857Y-95972380D02*
X174029523Y-95972380D01*
X173600952Y-96972380D01*
%TO.C,U1*%
X113538095Y-96792380D02*
X113538095Y-97601904D01*
X113585714Y-97697142D01*
X113633333Y-97744761D01*
X113728571Y-97792380D01*
X113919047Y-97792380D01*
X114014285Y-97744761D01*
X114061904Y-97697142D01*
X114109523Y-97601904D01*
X114109523Y-96792380D01*
X115109523Y-97792380D02*
X114538095Y-97792380D01*
X114823809Y-97792380D02*
X114823809Y-96792380D01*
X114728571Y-96935238D01*
X114633333Y-97030476D01*
X114538095Y-97078095D01*
%TO.C,R14*%
X166997142Y-96972380D02*
X166663809Y-96496190D01*
X166425714Y-96972380D02*
X166425714Y-95972380D01*
X166806666Y-95972380D01*
X166901904Y-96020000D01*
X166949523Y-96067619D01*
X166997142Y-96162857D01*
X166997142Y-96305714D01*
X166949523Y-96400952D01*
X166901904Y-96448571D01*
X166806666Y-96496190D01*
X166425714Y-96496190D01*
X167949523Y-96972380D02*
X167378095Y-96972380D01*
X167663809Y-96972380D02*
X167663809Y-95972380D01*
X167568571Y-96115238D01*
X167473333Y-96210476D01*
X167378095Y-96258095D01*
X168806666Y-96305714D02*
X168806666Y-96972380D01*
X168568571Y-95924761D02*
X168330476Y-96639047D01*
X168949523Y-96639047D01*
%TO.C,R4*%
X134453333Y-96232380D02*
X134120000Y-95756190D01*
X133881904Y-96232380D02*
X133881904Y-95232380D01*
X134262857Y-95232380D01*
X134358095Y-95280000D01*
X134405714Y-95327619D01*
X134453333Y-95422857D01*
X134453333Y-95565714D01*
X134405714Y-95660952D01*
X134358095Y-95708571D01*
X134262857Y-95756190D01*
X133881904Y-95756190D01*
X135310476Y-95565714D02*
X135310476Y-96232380D01*
X135072380Y-95184761D02*
X134834285Y-95899047D01*
X135453333Y-95899047D01*
%TO.C,R2*%
X149693333Y-86072380D02*
X149360000Y-85596190D01*
X149121904Y-86072380D02*
X149121904Y-85072380D01*
X149502857Y-85072380D01*
X149598095Y-85120000D01*
X149645714Y-85167619D01*
X149693333Y-85262857D01*
X149693333Y-85405714D01*
X149645714Y-85500952D01*
X149598095Y-85548571D01*
X149502857Y-85596190D01*
X149121904Y-85596190D01*
X150074285Y-85167619D02*
X150121904Y-85120000D01*
X150217142Y-85072380D01*
X150455238Y-85072380D01*
X150550476Y-85120000D01*
X150598095Y-85167619D01*
X150645714Y-85262857D01*
X150645714Y-85358095D01*
X150598095Y-85500952D01*
X150026666Y-86072380D01*
X150645714Y-86072380D01*
%TO.C,R18*%
X172077142Y-86812380D02*
X171743809Y-86336190D01*
X171505714Y-86812380D02*
X171505714Y-85812380D01*
X171886666Y-85812380D01*
X171981904Y-85860000D01*
X172029523Y-85907619D01*
X172077142Y-86002857D01*
X172077142Y-86145714D01*
X172029523Y-86240952D01*
X171981904Y-86288571D01*
X171886666Y-86336190D01*
X171505714Y-86336190D01*
X173029523Y-86812380D02*
X172458095Y-86812380D01*
X172743809Y-86812380D02*
X172743809Y-85812380D01*
X172648571Y-85955238D01*
X172553333Y-86050476D01*
X172458095Y-86098095D01*
X173600952Y-86240952D02*
X173505714Y-86193333D01*
X173458095Y-86145714D01*
X173410476Y-86050476D01*
X173410476Y-86002857D01*
X173458095Y-85907619D01*
X173505714Y-85860000D01*
X173600952Y-85812380D01*
X173791428Y-85812380D01*
X173886666Y-85860000D01*
X173934285Y-85907619D01*
X173981904Y-86002857D01*
X173981904Y-86050476D01*
X173934285Y-86145714D01*
X173886666Y-86193333D01*
X173791428Y-86240952D01*
X173600952Y-86240952D01*
X173505714Y-86288571D01*
X173458095Y-86336190D01*
X173410476Y-86431428D01*
X173410476Y-86621904D01*
X173458095Y-86717142D01*
X173505714Y-86764761D01*
X173600952Y-86812380D01*
X173791428Y-86812380D01*
X173886666Y-86764761D01*
X173934285Y-86717142D01*
X173981904Y-86621904D01*
X173981904Y-86431428D01*
X173934285Y-86336190D01*
X173886666Y-86288571D01*
X173791428Y-86240952D01*
%TO.C,Q3*%
X161022261Y-112307619D02*
X160927023Y-112260000D01*
X160831785Y-112164761D01*
X160688928Y-112021904D01*
X160593690Y-111974285D01*
X160498452Y-111974285D01*
X160546071Y-112212380D02*
X160450833Y-112164761D01*
X160355595Y-112069523D01*
X160307976Y-111879047D01*
X160307976Y-111545714D01*
X160355595Y-111355238D01*
X160450833Y-111260000D01*
X160546071Y-111212380D01*
X160736547Y-111212380D01*
X160831785Y-111260000D01*
X160927023Y-111355238D01*
X160974642Y-111545714D01*
X160974642Y-111879047D01*
X160927023Y-112069523D01*
X160831785Y-112164761D01*
X160736547Y-112212380D01*
X160546071Y-112212380D01*
X161307976Y-111212380D02*
X161927023Y-111212380D01*
X161593690Y-111593333D01*
X161736547Y-111593333D01*
X161831785Y-111640952D01*
X161879404Y-111688571D01*
X161927023Y-111783809D01*
X161927023Y-112021904D01*
X161879404Y-112117142D01*
X161831785Y-112164761D01*
X161736547Y-112212380D01*
X161450833Y-112212380D01*
X161355595Y-112164761D01*
X161307976Y-112117142D01*
D12*
X162831428Y-105840000D02*
X162231428Y-105840000D01*
X162831428Y-105211428D02*
X162545714Y-105411428D01*
X162831428Y-105554285D02*
X162231428Y-105554285D01*
X162231428Y-105325714D01*
X162260000Y-105268571D01*
X162288571Y-105240000D01*
X162345714Y-105211428D01*
X162431428Y-105211428D01*
X162488571Y-105240000D01*
X162517142Y-105268571D01*
X162545714Y-105325714D01*
X162545714Y-105554285D01*
X162831428Y-104668571D02*
X162831428Y-104954285D01*
X162231428Y-104954285D01*
X162831428Y-104468571D02*
X162231428Y-104468571D01*
X162231428Y-104325714D01*
X162260000Y-104240000D01*
X162317142Y-104182857D01*
X162374285Y-104154285D01*
X162488571Y-104125714D01*
X162574285Y-104125714D01*
X162688571Y-104154285D01*
X162745714Y-104182857D01*
X162802857Y-104240000D01*
X162831428Y-104325714D01*
X162831428Y-104468571D01*
X162231428Y-103754285D02*
X162231428Y-103697142D01*
X162260000Y-103640000D01*
X162288571Y-103611428D01*
X162345714Y-103582857D01*
X162460000Y-103554285D01*
X162602857Y-103554285D01*
X162717142Y-103582857D01*
X162774285Y-103611428D01*
X162802857Y-103640000D01*
X162831428Y-103697142D01*
X162831428Y-103754285D01*
X162802857Y-103811428D01*
X162774285Y-103840000D01*
X162717142Y-103868571D01*
X162602857Y-103897142D01*
X162460000Y-103897142D01*
X162345714Y-103868571D01*
X162288571Y-103840000D01*
X162260000Y-103811428D01*
X162231428Y-103754285D01*
X162288571Y-103325714D02*
X162260000Y-103297142D01*
X162231428Y-103240000D01*
X162231428Y-103097142D01*
X162260000Y-103040000D01*
X162288571Y-103011428D01*
X162345714Y-102982857D01*
X162402857Y-102982857D01*
X162488571Y-103011428D01*
X162831428Y-103354285D01*
X162831428Y-102982857D01*
X162431428Y-102468571D02*
X162831428Y-102468571D01*
X162202857Y-102611428D02*
X162631428Y-102754285D01*
X162631428Y-102382857D01*
D11*
%TO.C,R9*%
X154773333Y-96232380D02*
X154440000Y-95756190D01*
X154201904Y-96232380D02*
X154201904Y-95232380D01*
X154582857Y-95232380D01*
X154678095Y-95280000D01*
X154725714Y-95327619D01*
X154773333Y-95422857D01*
X154773333Y-95565714D01*
X154725714Y-95660952D01*
X154678095Y-95708571D01*
X154582857Y-95756190D01*
X154201904Y-95756190D01*
X155249523Y-96232380D02*
X155440000Y-96232380D01*
X155535238Y-96184761D01*
X155582857Y-96137142D01*
X155678095Y-95994285D01*
X155725714Y-95803809D01*
X155725714Y-95422857D01*
X155678095Y-95327619D01*
X155630476Y-95280000D01*
X155535238Y-95232380D01*
X155344761Y-95232380D01*
X155249523Y-95280000D01*
X155201904Y-95327619D01*
X155154285Y-95422857D01*
X155154285Y-95660952D01*
X155201904Y-95756190D01*
X155249523Y-95803809D01*
X155344761Y-95851428D01*
X155535238Y-95851428D01*
X155630476Y-95803809D01*
X155678095Y-95756190D01*
X155725714Y-95660952D01*
%TO.C,Q2*%
X161022261Y-71667619D02*
X160927023Y-71620000D01*
X160831785Y-71524761D01*
X160688928Y-71381904D01*
X160593690Y-71334285D01*
X160498452Y-71334285D01*
X160546071Y-71572380D02*
X160450833Y-71524761D01*
X160355595Y-71429523D01*
X160307976Y-71239047D01*
X160307976Y-70905714D01*
X160355595Y-70715238D01*
X160450833Y-70620000D01*
X160546071Y-70572380D01*
X160736547Y-70572380D01*
X160831785Y-70620000D01*
X160927023Y-70715238D01*
X160974642Y-70905714D01*
X160974642Y-71239047D01*
X160927023Y-71429523D01*
X160831785Y-71524761D01*
X160736547Y-71572380D01*
X160546071Y-71572380D01*
X161355595Y-70667619D02*
X161403214Y-70620000D01*
X161498452Y-70572380D01*
X161736547Y-70572380D01*
X161831785Y-70620000D01*
X161879404Y-70667619D01*
X161927023Y-70762857D01*
X161927023Y-70858095D01*
X161879404Y-71000952D01*
X161307976Y-71572380D01*
X161927023Y-71572380D01*
D12*
X162831428Y-80440000D02*
X162231428Y-80440000D01*
X162831428Y-79811428D02*
X162545714Y-80011428D01*
X162831428Y-80154285D02*
X162231428Y-80154285D01*
X162231428Y-79925714D01*
X162260000Y-79868571D01*
X162288571Y-79840000D01*
X162345714Y-79811428D01*
X162431428Y-79811428D01*
X162488571Y-79840000D01*
X162517142Y-79868571D01*
X162545714Y-79925714D01*
X162545714Y-80154285D01*
X162831428Y-79268571D02*
X162831428Y-79554285D01*
X162231428Y-79554285D01*
X162831428Y-79068571D02*
X162231428Y-79068571D01*
X162231428Y-78925714D01*
X162260000Y-78840000D01*
X162317142Y-78782857D01*
X162374285Y-78754285D01*
X162488571Y-78725714D01*
X162574285Y-78725714D01*
X162688571Y-78754285D01*
X162745714Y-78782857D01*
X162802857Y-78840000D01*
X162831428Y-78925714D01*
X162831428Y-79068571D01*
X162231428Y-78354285D02*
X162231428Y-78297142D01*
X162260000Y-78240000D01*
X162288571Y-78211428D01*
X162345714Y-78182857D01*
X162460000Y-78154285D01*
X162602857Y-78154285D01*
X162717142Y-78182857D01*
X162774285Y-78211428D01*
X162802857Y-78240000D01*
X162831428Y-78297142D01*
X162831428Y-78354285D01*
X162802857Y-78411428D01*
X162774285Y-78440000D01*
X162717142Y-78468571D01*
X162602857Y-78497142D01*
X162460000Y-78497142D01*
X162345714Y-78468571D01*
X162288571Y-78440000D01*
X162260000Y-78411428D01*
X162231428Y-78354285D01*
X162288571Y-77925714D02*
X162260000Y-77897142D01*
X162231428Y-77840000D01*
X162231428Y-77697142D01*
X162260000Y-77640000D01*
X162288571Y-77611428D01*
X162345714Y-77582857D01*
X162402857Y-77582857D01*
X162488571Y-77611428D01*
X162831428Y-77954285D01*
X162831428Y-77582857D01*
X162431428Y-77068571D02*
X162831428Y-77068571D01*
X162202857Y-77211428D02*
X162631428Y-77354285D01*
X162631428Y-76982857D01*
D11*
%TO.C,R5*%
X129373333Y-86072380D02*
X129040000Y-85596190D01*
X128801904Y-86072380D02*
X128801904Y-85072380D01*
X129182857Y-85072380D01*
X129278095Y-85120000D01*
X129325714Y-85167619D01*
X129373333Y-85262857D01*
X129373333Y-85405714D01*
X129325714Y-85500952D01*
X129278095Y-85548571D01*
X129182857Y-85596190D01*
X128801904Y-85596190D01*
X130278095Y-85072380D02*
X129801904Y-85072380D01*
X129754285Y-85548571D01*
X129801904Y-85500952D01*
X129897142Y-85453333D01*
X130135238Y-85453333D01*
X130230476Y-85500952D01*
X130278095Y-85548571D01*
X130325714Y-85643809D01*
X130325714Y-85881904D01*
X130278095Y-85977142D01*
X130230476Y-86024761D01*
X130135238Y-86072380D01*
X129897142Y-86072380D01*
X129801904Y-86024761D01*
X129754285Y-85977142D01*
%TO.C,R21*%
X113820380Y-104528857D02*
X113344190Y-104862190D01*
X113820380Y-105100285D02*
X112820380Y-105100285D01*
X112820380Y-104719333D01*
X112868000Y-104624095D01*
X112915619Y-104576476D01*
X113010857Y-104528857D01*
X113153714Y-104528857D01*
X113248952Y-104576476D01*
X113296571Y-104624095D01*
X113344190Y-104719333D01*
X113344190Y-105100285D01*
X112915619Y-104147904D02*
X112868000Y-104100285D01*
X112820380Y-104005047D01*
X112820380Y-103766952D01*
X112868000Y-103671714D01*
X112915619Y-103624095D01*
X113010857Y-103576476D01*
X113106095Y-103576476D01*
X113248952Y-103624095D01*
X113820380Y-104195523D01*
X113820380Y-103576476D01*
X113820380Y-102624095D02*
X113820380Y-103195523D01*
X113820380Y-102909809D02*
X112820380Y-102909809D01*
X112963238Y-103005047D01*
X113058476Y-103100285D01*
X113106095Y-103195523D01*
%TO.C,Q1*%
X158482261Y-89447619D02*
X158387023Y-89400000D01*
X158291785Y-89304761D01*
X158148928Y-89161904D01*
X158053690Y-89114285D01*
X157958452Y-89114285D01*
X158006071Y-89352380D02*
X157910833Y-89304761D01*
X157815595Y-89209523D01*
X157767976Y-89019047D01*
X157767976Y-88685714D01*
X157815595Y-88495238D01*
X157910833Y-88400000D01*
X158006071Y-88352380D01*
X158196547Y-88352380D01*
X158291785Y-88400000D01*
X158387023Y-88495238D01*
X158434642Y-88685714D01*
X158434642Y-89019047D01*
X158387023Y-89209523D01*
X158291785Y-89304761D01*
X158196547Y-89352380D01*
X158006071Y-89352380D01*
X159387023Y-89352380D02*
X158815595Y-89352380D01*
X159101309Y-89352380D02*
X159101309Y-88352380D01*
X159006071Y-88495238D01*
X158910833Y-88590476D01*
X158815595Y-88638095D01*
D12*
X162831428Y-93140000D02*
X162231428Y-93140000D01*
X162831428Y-92511428D02*
X162545714Y-92711428D01*
X162831428Y-92854285D02*
X162231428Y-92854285D01*
X162231428Y-92625714D01*
X162260000Y-92568571D01*
X162288571Y-92540000D01*
X162345714Y-92511428D01*
X162431428Y-92511428D01*
X162488571Y-92540000D01*
X162517142Y-92568571D01*
X162545714Y-92625714D01*
X162545714Y-92854285D01*
X162831428Y-91968571D02*
X162831428Y-92254285D01*
X162231428Y-92254285D01*
X162831428Y-91768571D02*
X162231428Y-91768571D01*
X162231428Y-91625714D01*
X162260000Y-91540000D01*
X162317142Y-91482857D01*
X162374285Y-91454285D01*
X162488571Y-91425714D01*
X162574285Y-91425714D01*
X162688571Y-91454285D01*
X162745714Y-91482857D01*
X162802857Y-91540000D01*
X162831428Y-91625714D01*
X162831428Y-91768571D01*
X162231428Y-91054285D02*
X162231428Y-90997142D01*
X162260000Y-90940000D01*
X162288571Y-90911428D01*
X162345714Y-90882857D01*
X162460000Y-90854285D01*
X162602857Y-90854285D01*
X162717142Y-90882857D01*
X162774285Y-90911428D01*
X162802857Y-90940000D01*
X162831428Y-90997142D01*
X162831428Y-91054285D01*
X162802857Y-91111428D01*
X162774285Y-91140000D01*
X162717142Y-91168571D01*
X162602857Y-91197142D01*
X162460000Y-91197142D01*
X162345714Y-91168571D01*
X162288571Y-91140000D01*
X162260000Y-91111428D01*
X162231428Y-91054285D01*
X162288571Y-90625714D02*
X162260000Y-90597142D01*
X162231428Y-90540000D01*
X162231428Y-90397142D01*
X162260000Y-90340000D01*
X162288571Y-90311428D01*
X162345714Y-90282857D01*
X162402857Y-90282857D01*
X162488571Y-90311428D01*
X162831428Y-90654285D01*
X162831428Y-90282857D01*
X162431428Y-89768571D02*
X162831428Y-89768571D01*
X162202857Y-89911428D02*
X162631428Y-90054285D01*
X162631428Y-89682857D01*
D11*
%TO.C,R10*%
X139057142Y-106392380D02*
X138723809Y-105916190D01*
X138485714Y-106392380D02*
X138485714Y-105392380D01*
X138866666Y-105392380D01*
X138961904Y-105440000D01*
X139009523Y-105487619D01*
X139057142Y-105582857D01*
X139057142Y-105725714D01*
X139009523Y-105820952D01*
X138961904Y-105868571D01*
X138866666Y-105916190D01*
X138485714Y-105916190D01*
X140009523Y-106392380D02*
X139438095Y-106392380D01*
X139723809Y-106392380D02*
X139723809Y-105392380D01*
X139628571Y-105535238D01*
X139533333Y-105630476D01*
X139438095Y-105678095D01*
X140628571Y-105392380D02*
X140723809Y-105392380D01*
X140819047Y-105440000D01*
X140866666Y-105487619D01*
X140914285Y-105582857D01*
X140961904Y-105773333D01*
X140961904Y-106011428D01*
X140914285Y-106201904D01*
X140866666Y-106297142D01*
X140819047Y-106344761D01*
X140723809Y-106392380D01*
X140628571Y-106392380D01*
X140533333Y-106344761D01*
X140485714Y-106297142D01*
X140438095Y-106201904D01*
X140390476Y-106011428D01*
X140390476Y-105773333D01*
X140438095Y-105582857D01*
X140485714Y-105487619D01*
X140533333Y-105440000D01*
X140628571Y-105392380D01*
%TO.C,J1*%
X128782380Y-112093333D02*
X129496666Y-112093333D01*
X129639523Y-112140952D01*
X129734761Y-112236190D01*
X129782380Y-112379047D01*
X129782380Y-112474285D01*
X129782380Y-111093333D02*
X129782380Y-111664761D01*
X129782380Y-111379047D02*
X128782380Y-111379047D01*
X128925238Y-111474285D01*
X129020476Y-111569523D01*
X129068095Y-111664761D01*
%TO.C,R20*%
X119070380Y-104393857D02*
X118594190Y-104727190D01*
X119070380Y-104965285D02*
X118070380Y-104965285D01*
X118070380Y-104584333D01*
X118118000Y-104489095D01*
X118165619Y-104441476D01*
X118260857Y-104393857D01*
X118403714Y-104393857D01*
X118498952Y-104441476D01*
X118546571Y-104489095D01*
X118594190Y-104584333D01*
X118594190Y-104965285D01*
X118165619Y-104012904D02*
X118118000Y-103965285D01*
X118070380Y-103870047D01*
X118070380Y-103631952D01*
X118118000Y-103536714D01*
X118165619Y-103489095D01*
X118260857Y-103441476D01*
X118356095Y-103441476D01*
X118498952Y-103489095D01*
X119070380Y-104060523D01*
X119070380Y-103441476D01*
X118070380Y-102822428D02*
X118070380Y-102727190D01*
X118118000Y-102631952D01*
X118165619Y-102584333D01*
X118260857Y-102536714D01*
X118451333Y-102489095D01*
X118689428Y-102489095D01*
X118879904Y-102536714D01*
X118975142Y-102584333D01*
X119022761Y-102631952D01*
X119070380Y-102727190D01*
X119070380Y-102822428D01*
X119022761Y-102917666D01*
X118975142Y-102965285D01*
X118879904Y-103012904D01*
X118689428Y-103060523D01*
X118451333Y-103060523D01*
X118260857Y-103012904D01*
X118165619Y-102965285D01*
X118118000Y-102917666D01*
X118070380Y-102822428D01*
%TO.C,R19*%
X172077142Y-107132380D02*
X171743809Y-106656190D01*
X171505714Y-107132380D02*
X171505714Y-106132380D01*
X171886666Y-106132380D01*
X171981904Y-106180000D01*
X172029523Y-106227619D01*
X172077142Y-106322857D01*
X172077142Y-106465714D01*
X172029523Y-106560952D01*
X171981904Y-106608571D01*
X171886666Y-106656190D01*
X171505714Y-106656190D01*
X173029523Y-107132380D02*
X172458095Y-107132380D01*
X172743809Y-107132380D02*
X172743809Y-106132380D01*
X172648571Y-106275238D01*
X172553333Y-106370476D01*
X172458095Y-106418095D01*
X173505714Y-107132380D02*
X173696190Y-107132380D01*
X173791428Y-107084761D01*
X173839047Y-107037142D01*
X173934285Y-106894285D01*
X173981904Y-106703809D01*
X173981904Y-106322857D01*
X173934285Y-106227619D01*
X173886666Y-106180000D01*
X173791428Y-106132380D01*
X173600952Y-106132380D01*
X173505714Y-106180000D01*
X173458095Y-106227619D01*
X173410476Y-106322857D01*
X173410476Y-106560952D01*
X173458095Y-106656190D01*
X173505714Y-106703809D01*
X173600952Y-106751428D01*
X173791428Y-106751428D01*
X173886666Y-106703809D01*
X173934285Y-106656190D01*
X173981904Y-106560952D01*
%TO.C,R3*%
X144613333Y-96232380D02*
X144280000Y-95756190D01*
X144041904Y-96232380D02*
X144041904Y-95232380D01*
X144422857Y-95232380D01*
X144518095Y-95280000D01*
X144565714Y-95327619D01*
X144613333Y-95422857D01*
X144613333Y-95565714D01*
X144565714Y-95660952D01*
X144518095Y-95708571D01*
X144422857Y-95756190D01*
X144041904Y-95756190D01*
X144946666Y-95232380D02*
X145565714Y-95232380D01*
X145232380Y-95613333D01*
X145375238Y-95613333D01*
X145470476Y-95660952D01*
X145518095Y-95708571D01*
X145565714Y-95803809D01*
X145565714Y-96041904D01*
X145518095Y-96137142D01*
X145470476Y-96184761D01*
X145375238Y-96232380D01*
X145089523Y-96232380D01*
X144994285Y-96184761D01*
X144946666Y-96137142D01*
%TO.C,R15*%
X166997142Y-86812380D02*
X166663809Y-86336190D01*
X166425714Y-86812380D02*
X166425714Y-85812380D01*
X166806666Y-85812380D01*
X166901904Y-85860000D01*
X166949523Y-85907619D01*
X166997142Y-86002857D01*
X166997142Y-86145714D01*
X166949523Y-86240952D01*
X166901904Y-86288571D01*
X166806666Y-86336190D01*
X166425714Y-86336190D01*
X167949523Y-86812380D02*
X167378095Y-86812380D01*
X167663809Y-86812380D02*
X167663809Y-85812380D01*
X167568571Y-85955238D01*
X167473333Y-86050476D01*
X167378095Y-86098095D01*
X168854285Y-85812380D02*
X168378095Y-85812380D01*
X168330476Y-86288571D01*
X168378095Y-86240952D01*
X168473333Y-86193333D01*
X168711428Y-86193333D01*
X168806666Y-86240952D01*
X168854285Y-86288571D01*
X168901904Y-86383809D01*
X168901904Y-86621904D01*
X168854285Y-86717142D01*
X168806666Y-86764761D01*
X168711428Y-86812380D01*
X168473333Y-86812380D01*
X168378095Y-86764761D01*
X168330476Y-86717142D01*
%TO.C,J2*%
X149526666Y-106132380D02*
X149526666Y-106846666D01*
X149479047Y-106989523D01*
X149383809Y-107084761D01*
X149240952Y-107132380D01*
X149145714Y-107132380D01*
X149955238Y-106227619D02*
X150002857Y-106180000D01*
X150098095Y-106132380D01*
X150336190Y-106132380D01*
X150431428Y-106180000D01*
X150479047Y-106227619D01*
X150526666Y-106322857D01*
X150526666Y-106418095D01*
X150479047Y-106560952D01*
X149907619Y-107132380D01*
X150526666Y-107132380D01*
%TO.C,R1*%
X144613333Y-75912380D02*
X144280000Y-75436190D01*
X144041904Y-75912380D02*
X144041904Y-74912380D01*
X144422857Y-74912380D01*
X144518095Y-74960000D01*
X144565714Y-75007619D01*
X144613333Y-75102857D01*
X144613333Y-75245714D01*
X144565714Y-75340952D01*
X144518095Y-75388571D01*
X144422857Y-75436190D01*
X144041904Y-75436190D01*
X145565714Y-75912380D02*
X144994285Y-75912380D01*
X145280000Y-75912380D02*
X145280000Y-74912380D01*
X145184761Y-75055238D01*
X145089523Y-75150476D01*
X144994285Y-75198095D01*
%TO.C,R12*%
X123817142Y-75912380D02*
X123483809Y-75436190D01*
X123245714Y-75912380D02*
X123245714Y-74912380D01*
X123626666Y-74912380D01*
X123721904Y-74960000D01*
X123769523Y-75007619D01*
X123817142Y-75102857D01*
X123817142Y-75245714D01*
X123769523Y-75340952D01*
X123721904Y-75388571D01*
X123626666Y-75436190D01*
X123245714Y-75436190D01*
X124769523Y-75912380D02*
X124198095Y-75912380D01*
X124483809Y-75912380D02*
X124483809Y-74912380D01*
X124388571Y-75055238D01*
X124293333Y-75150476D01*
X124198095Y-75198095D01*
X125150476Y-75007619D02*
X125198095Y-74960000D01*
X125293333Y-74912380D01*
X125531428Y-74912380D01*
X125626666Y-74960000D01*
X125674285Y-75007619D01*
X125721904Y-75102857D01*
X125721904Y-75198095D01*
X125674285Y-75340952D01*
X125102857Y-75912380D01*
X125721904Y-75912380D01*
%TO.C,R11*%
X123817142Y-96232380D02*
X123483809Y-95756190D01*
X123245714Y-96232380D02*
X123245714Y-95232380D01*
X123626666Y-95232380D01*
X123721904Y-95280000D01*
X123769523Y-95327619D01*
X123817142Y-95422857D01*
X123817142Y-95565714D01*
X123769523Y-95660952D01*
X123721904Y-95708571D01*
X123626666Y-95756190D01*
X123245714Y-95756190D01*
X124769523Y-96232380D02*
X124198095Y-96232380D01*
X124483809Y-96232380D02*
X124483809Y-95232380D01*
X124388571Y-95375238D01*
X124293333Y-95470476D01*
X124198095Y-95518095D01*
X125721904Y-96232380D02*
X125150476Y-96232380D01*
X125436190Y-96232380D02*
X125436190Y-95232380D01*
X125340952Y-95375238D01*
X125245714Y-95470476D01*
X125150476Y-95518095D01*
%TO.C,R13*%
X139057142Y-86072380D02*
X138723809Y-85596190D01*
X138485714Y-86072380D02*
X138485714Y-85072380D01*
X138866666Y-85072380D01*
X138961904Y-85120000D01*
X139009523Y-85167619D01*
X139057142Y-85262857D01*
X139057142Y-85405714D01*
X139009523Y-85500952D01*
X138961904Y-85548571D01*
X138866666Y-85596190D01*
X138485714Y-85596190D01*
X140009523Y-86072380D02*
X139438095Y-86072380D01*
X139723809Y-86072380D02*
X139723809Y-85072380D01*
X139628571Y-85215238D01*
X139533333Y-85310476D01*
X139438095Y-85358095D01*
X140342857Y-85072380D02*
X140961904Y-85072380D01*
X140628571Y-85453333D01*
X140771428Y-85453333D01*
X140866666Y-85500952D01*
X140914285Y-85548571D01*
X140961904Y-85643809D01*
X140961904Y-85881904D01*
X140914285Y-85977142D01*
X140866666Y-86024761D01*
X140771428Y-86072380D01*
X140485714Y-86072380D01*
X140390476Y-86024761D01*
X140342857Y-85977142D01*
%TO.C,R8*%
X154773333Y-75912380D02*
X154440000Y-75436190D01*
X154201904Y-75912380D02*
X154201904Y-74912380D01*
X154582857Y-74912380D01*
X154678095Y-74960000D01*
X154725714Y-75007619D01*
X154773333Y-75102857D01*
X154773333Y-75245714D01*
X154725714Y-75340952D01*
X154678095Y-75388571D01*
X154582857Y-75436190D01*
X154201904Y-75436190D01*
X155344761Y-75340952D02*
X155249523Y-75293333D01*
X155201904Y-75245714D01*
X155154285Y-75150476D01*
X155154285Y-75102857D01*
X155201904Y-75007619D01*
X155249523Y-74960000D01*
X155344761Y-74912380D01*
X155535238Y-74912380D01*
X155630476Y-74960000D01*
X155678095Y-75007619D01*
X155725714Y-75102857D01*
X155725714Y-75150476D01*
X155678095Y-75245714D01*
X155630476Y-75293333D01*
X155535238Y-75340952D01*
X155344761Y-75340952D01*
X155249523Y-75388571D01*
X155201904Y-75436190D01*
X155154285Y-75531428D01*
X155154285Y-75721904D01*
X155201904Y-75817142D01*
X155249523Y-75864761D01*
X155344761Y-75912380D01*
X155535238Y-75912380D01*
X155630476Y-75864761D01*
X155678095Y-75817142D01*
X155725714Y-75721904D01*
X155725714Y-75531428D01*
X155678095Y-75436190D01*
X155630476Y-75388571D01*
X155535238Y-75340952D01*
%TO.C,R16*%
X166997142Y-107132380D02*
X166663809Y-106656190D01*
X166425714Y-107132380D02*
X166425714Y-106132380D01*
X166806666Y-106132380D01*
X166901904Y-106180000D01*
X166949523Y-106227619D01*
X166997142Y-106322857D01*
X166997142Y-106465714D01*
X166949523Y-106560952D01*
X166901904Y-106608571D01*
X166806666Y-106656190D01*
X166425714Y-106656190D01*
X167949523Y-107132380D02*
X167378095Y-107132380D01*
X167663809Y-107132380D02*
X167663809Y-106132380D01*
X167568571Y-106275238D01*
X167473333Y-106370476D01*
X167378095Y-106418095D01*
X168806666Y-106132380D02*
X168616190Y-106132380D01*
X168520952Y-106180000D01*
X168473333Y-106227619D01*
X168378095Y-106370476D01*
X168330476Y-106560952D01*
X168330476Y-106941904D01*
X168378095Y-107037142D01*
X168425714Y-107084761D01*
X168520952Y-107132380D01*
X168711428Y-107132380D01*
X168806666Y-107084761D01*
X168854285Y-107037142D01*
X168901904Y-106941904D01*
X168901904Y-106703809D01*
X168854285Y-106608571D01*
X168806666Y-106560952D01*
X168711428Y-106513333D01*
X168520952Y-106513333D01*
X168425714Y-106560952D01*
X168378095Y-106608571D01*
X168330476Y-106703809D01*
%TO.C,R7*%
X139533333Y-65752380D02*
X139200000Y-65276190D01*
X138961904Y-65752380D02*
X138961904Y-64752380D01*
X139342857Y-64752380D01*
X139438095Y-64800000D01*
X139485714Y-64847619D01*
X139533333Y-64942857D01*
X139533333Y-65085714D01*
X139485714Y-65180952D01*
X139438095Y-65228571D01*
X139342857Y-65276190D01*
X138961904Y-65276190D01*
X139866666Y-64752380D02*
X140533333Y-64752380D01*
X140104761Y-65752380D01*
%TO.C,R6*%
X134453333Y-75912380D02*
X134120000Y-75436190D01*
X133881904Y-75912380D02*
X133881904Y-74912380D01*
X134262857Y-74912380D01*
X134358095Y-74960000D01*
X134405714Y-75007619D01*
X134453333Y-75102857D01*
X134453333Y-75245714D01*
X134405714Y-75340952D01*
X134358095Y-75388571D01*
X134262857Y-75436190D01*
X133881904Y-75436190D01*
X135310476Y-74912380D02*
X135120000Y-74912380D01*
X135024761Y-74960000D01*
X134977142Y-75007619D01*
X134881904Y-75150476D01*
X134834285Y-75340952D01*
X134834285Y-75721904D01*
X134881904Y-75817142D01*
X134929523Y-75864761D01*
X135024761Y-75912380D01*
X135215238Y-75912380D01*
X135310476Y-75864761D01*
X135358095Y-75817142D01*
X135405714Y-75721904D01*
X135405714Y-75483809D01*
X135358095Y-75388571D01*
X135310476Y-75340952D01*
X135215238Y-75293333D01*
X135024761Y-75293333D01*
X134929523Y-75340952D01*
X134881904Y-75388571D01*
X134834285Y-75483809D01*
D13*
%TO.C,R17*%
X172720000Y-92610000D02*
X172720000Y-90000000D01*
X174090000Y-93980000D02*
G75*
G03*
X174090000Y-93980000I-1370000J0D01*
G01*
%TO.C,U1*%
X114300000Y-96500000D02*
X112350000Y-96500000D01*
X114300000Y-86380000D02*
X116250000Y-86380000D01*
X114300000Y-96500000D02*
X117750000Y-96500000D01*
X114300000Y-86380000D02*
X112350000Y-86380000D01*
%TO.C,R14*%
X167640000Y-90270000D02*
X167640000Y-92880000D01*
X169010000Y-88900000D02*
G75*
G03*
X169010000Y-88900000I-1370000J0D01*
G01*
%TO.C,R4*%
X130731961Y-96934144D02*
X129954144Y-97711961D01*
X129954144Y-97711961D02*
X130845098Y-98602916D01*
X131622916Y-97825098D02*
X130731961Y-96934144D01*
X130845326Y-98602629D02*
G75*
G03*
X131622916Y-97825098I3774674J-2997371D01*
G01*
%TO.C,R2*%
X145971961Y-86774144D02*
X145194144Y-87551961D01*
X145194144Y-87551961D02*
X146085098Y-88442916D01*
X146862916Y-87665098D02*
X145971961Y-86774144D01*
X146085326Y-88442629D02*
G75*
G03*
X146862916Y-87665098I3774674J-2997371D01*
G01*
%TO.C,R18*%
X172720000Y-82450000D02*
X172720000Y-79840000D01*
X174090000Y-83820000D02*
G75*
G03*
X174090000Y-83820000I-1370000J0D01*
G01*
D11*
%TO.C,Q3*%
X160610000Y-103540715D02*
X160610000Y-104739285D01*
X160610000Y-104739285D02*
X160110000Y-104739285D01*
X165010000Y-106237500D02*
X165010000Y-102042500D01*
X160110000Y-104739285D02*
X160110000Y-106237500D01*
X160110000Y-106237500D02*
X165010000Y-106237500D01*
X165010000Y-102042500D02*
X160110000Y-102042500D01*
X160110000Y-102042500D02*
X160110000Y-103540715D01*
X160110000Y-103540715D02*
X160610000Y-103540715D01*
D14*
X161465000Y-110017500D02*
G75*
G03*
X161465000Y-110017500I-125000J0D01*
G01*
D13*
%TO.C,R9*%
X151942916Y-97825098D02*
X151051961Y-96934144D01*
X151051961Y-96934144D02*
X150274144Y-97711961D01*
X150274144Y-97711961D02*
X151165098Y-98602916D01*
X151165326Y-98602629D02*
G75*
G03*
X151942916Y-97825098I3774674J-2997371D01*
G01*
D11*
%TO.C,Q2*%
X160610000Y-78140715D02*
X160610000Y-79339285D01*
X160110000Y-79339285D02*
X160110000Y-80837500D01*
X160110000Y-78140715D02*
X160610000Y-78140715D01*
X160610000Y-79339285D02*
X160110000Y-79339285D01*
X165010000Y-80837500D02*
X165010000Y-76642500D01*
X165010000Y-76642500D02*
X160110000Y-76642500D01*
X160110000Y-76642500D02*
X160110000Y-78140715D01*
X160110000Y-80837500D02*
X165010000Y-80837500D01*
D14*
X161465000Y-84617500D02*
G75*
G03*
X161465000Y-84617500I-125000J0D01*
G01*
D13*
%TO.C,R5*%
X124874144Y-87551961D02*
X125765098Y-88442916D01*
X125651961Y-86774144D02*
X124874144Y-87551961D01*
X126542916Y-87665098D02*
X125651961Y-86774144D01*
X125765326Y-88442629D02*
G75*
G03*
X126542916Y-87665098I3774674J-2997371D01*
G01*
%TO.C,R21*%
X110998000Y-102716000D02*
X110998000Y-105326000D01*
X112368000Y-101346000D02*
G75*
G03*
X112368000Y-101346000I-1370000J0D01*
G01*
D11*
%TO.C,Q1*%
X160110000Y-92039285D02*
X160110000Y-93537500D01*
X165010000Y-89342500D02*
X160110000Y-89342500D01*
X160110000Y-90840715D02*
X160610000Y-90840715D01*
X160110000Y-89342500D02*
X160110000Y-90840715D01*
X160610000Y-90840715D02*
X160610000Y-92039285D01*
X165010000Y-93537500D02*
X165010000Y-89342500D01*
X160610000Y-92039285D02*
X160110000Y-92039285D01*
X160110000Y-93537500D02*
X165010000Y-93537500D01*
D14*
X161465000Y-97317500D02*
G75*
G03*
X161465000Y-97317500I-125000J0D01*
G01*
D13*
%TO.C,R10*%
X136702916Y-107985098D02*
X135811961Y-107094144D01*
X135811961Y-107094144D02*
X135034144Y-107871961D01*
X135034144Y-107871961D02*
X135925098Y-108762916D01*
X135925326Y-108762629D02*
G75*
G03*
X136702916Y-107985098I3774674J-2997371D01*
G01*
%TO.C,J1*%
X127000000Y-110430000D02*
X128330000Y-110430000D01*
X125730000Y-110430000D02*
X125730000Y-113090000D01*
X128330000Y-110430000D02*
X128330000Y-111760000D01*
X125730000Y-113090000D02*
X120590000Y-113090000D01*
X120590000Y-110430000D02*
X120590000Y-113090000D01*
X125730000Y-110430000D02*
X120590000Y-110430000D01*
%TO.C,R20*%
X116078000Y-105056000D02*
X116078000Y-102446000D01*
X117448000Y-106426000D02*
G75*
G03*
X117448000Y-106426000I-1370000J0D01*
G01*
%TO.C,R19*%
X172720000Y-102770000D02*
X172720000Y-100160000D01*
X174090000Y-104140000D02*
G75*
G03*
X174090000Y-104140000I-1370000J0D01*
G01*
%TO.C,R3*%
X141782916Y-97825098D02*
X140891961Y-96934144D01*
X140114144Y-97711961D02*
X141005098Y-98602916D01*
X140891961Y-96934144D02*
X140114144Y-97711961D01*
X141005326Y-98602629D02*
G75*
G03*
X141782916Y-97825098I3774674J-2997371D01*
G01*
%TO.C,R15*%
X167640000Y-80110000D02*
X167640000Y-82720000D01*
X169010000Y-78740000D02*
G75*
G03*
X169010000Y-78740000I-1370000J0D01*
G01*
%TO.C,J2*%
X147300000Y-107535000D02*
X147300000Y-117855000D01*
X157420000Y-107535000D02*
X157420000Y-117855000D01*
X147300000Y-117295000D02*
X157420000Y-117295000D01*
X147060000Y-118095000D02*
X147560000Y-118095000D01*
X147300000Y-117855000D02*
X157420000Y-117855000D01*
X147060000Y-117355000D02*
X147060000Y-118095000D01*
X147300000Y-107535000D02*
X157420000Y-107535000D01*
X147300000Y-116195000D02*
X157420000Y-116195000D01*
X148428000Y-111787000D02*
G75*
G03*
X148427891Y-113002742I1432000J-608000D01*
G01*
X150468000Y-110963000D02*
G75*
G03*
X149252258Y-110962891I-608000J-1432000D01*
G01*
X149860000Y-113950000D02*
G75*
G03*
X150467587Y-113826385I0J1555000D01*
G01*
X149252000Y-113827000D02*
G75*
G03*
X149887011Y-113950493I607998J1431988D01*
G01*
X151292000Y-113003000D02*
G75*
G03*
X151292109Y-111787258I-1432003J607999D01*
G01*
X156415000Y-112395000D02*
G75*
G03*
X156415000Y-112395000I-1555000J0D01*
G01*
%TO.C,R1*%
X140891961Y-76614144D02*
X140114144Y-77391961D01*
X140114144Y-77391961D02*
X141005098Y-78282916D01*
X141782916Y-77505098D02*
X140891961Y-76614144D01*
X141005326Y-78282629D02*
G75*
G03*
X141782916Y-77505098I3774674J-2997371D01*
G01*
%TO.C,R12*%
X121462916Y-77505098D02*
X120571961Y-76614144D01*
X120571961Y-76614144D02*
X119794144Y-77391961D01*
X119794144Y-77391961D02*
X120685098Y-78282916D01*
X120685326Y-78282629D02*
G75*
G03*
X121462916Y-77505098I3774674J-2997371D01*
G01*
%TO.C,R11*%
X120571961Y-96934144D02*
X119794144Y-97711961D01*
X121462916Y-97825098D02*
X120571961Y-96934144D01*
X119794144Y-97711961D02*
X120685098Y-98602916D01*
X120685326Y-98602629D02*
G75*
G03*
X121462916Y-97825098I3774674J-2997371D01*
G01*
%TO.C,R13*%
X135034144Y-87551961D02*
X135925098Y-88442916D01*
X136702916Y-87665098D02*
X135811961Y-86774144D01*
X135811961Y-86774144D02*
X135034144Y-87551961D01*
X135925326Y-88442629D02*
G75*
G03*
X136702916Y-87665098I3774674J-2997371D01*
G01*
%TO.C,R8*%
X151942916Y-77505098D02*
X151051961Y-76614144D01*
X151051961Y-76614144D02*
X150274144Y-77391961D01*
X150274144Y-77391961D02*
X151165098Y-78282916D01*
X151165326Y-78282629D02*
G75*
G03*
X151942916Y-77505098I3774674J-2997371D01*
G01*
%TO.C,R16*%
X167640000Y-100430000D02*
X167640000Y-103040000D01*
X169010000Y-99060000D02*
G75*
G03*
X169010000Y-99060000I-1370000J0D01*
G01*
%TO.C,R7*%
X135811961Y-66454144D02*
X135034144Y-67231961D01*
X135034144Y-67231961D02*
X135925098Y-68122916D01*
X136702916Y-67345098D02*
X135811961Y-66454144D01*
X135925326Y-68122629D02*
G75*
G03*
X136702916Y-67345098I3774674J-2997371D01*
G01*
%TO.C,R6*%
X129954144Y-77391961D02*
X130845098Y-78282916D01*
X130731961Y-76614144D02*
X129954144Y-77391961D01*
X131622916Y-77505098D02*
X130731961Y-76614144D01*
X130845326Y-78282629D02*
G75*
G03*
X131622916Y-77505098I3774674J-2997371D01*
G01*
%TD*%
M02*
