M48
; DRILL file {KiCad (6.0.5)} date Sat Jun  4 20:53:54 2022
; FORMAT={-:-/ absolute / inch / decimal}
; #@! TF.CreationDate,2022-06-04T20:53:54-07:00
; #@! TF.GenerationSoftware,Kicad,Pcbnew,(6.0.5)
; #@! TF.FileFunction,MixedPlating,1,2
FMAT,2
INCH
; #@! TA.AperFunction,Plated,PTH,ViaDrill
T1C0.0157
; #@! TA.AperFunction,Plated,PTH,ComponentDrill
T2C0.0276
; #@! TA.AperFunction,Plated,PTH,ComponentDrill
T3C0.0354
; #@! TA.AperFunction,Plated,PTH,ComponentDrill
T4C0.0394
; #@! TA.AperFunction,Plated,PTH,ComponentDrill
T5C0.0472
; #@! TA.AperFunction,Plated,PTH,ComponentDrill
T6C0.1260
%
G90
G05
T1
X4.45Y-3.6
X4.45Y-3.8
X4.5465Y-3.8
X4.55Y-3.4
X4.575Y-4.05
X4.575Y-4.25
X6.6Y-2.9
X6.6Y-3.9
X6.8Y-3.4
T2
X4.8Y-3.2
X4.8Y-4.0
X4.9Y-3.3
X4.9Y-4.1
X5.0Y-3.2
X5.0Y-3.6
X5.0Y-4.0
X5.1Y-3.7
X5.2Y-3.2
X5.2Y-3.6
X5.2Y-4.0
X5.3Y-3.3
X5.3Y-4.1
X5.4Y-2.8
X5.4Y-3.2
X5.4Y-3.6
X5.4Y-4.0
X5.4Y-4.4
X5.5Y-2.9
X5.5Y-3.7
X5.5Y-4.5
X5.6Y-2.8
X5.6Y-3.2
X5.6Y-3.6
X5.6Y-4.0
X5.6Y-4.4
X5.7Y-3.3
X5.7Y-4.1
X5.8Y-3.2
X5.8Y-3.6
X5.8Y-4.0
X5.9Y-3.7
X6.0Y-3.2
X6.0Y-3.6
X6.0Y-4.0
X6.1Y-3.3
X6.1Y-4.1
X6.2Y-3.2
X6.2Y-4.0
T3
X6.35Y-2.9188
X6.35Y-3.2812
X6.35Y-3.4188
X6.35Y-3.7812
X6.35Y-3.9188
X6.35Y-4.2812
X6.45Y-2.9188
X6.45Y-3.2812
X6.45Y-3.4188
X6.45Y-3.7812
X6.45Y-3.9188
X6.45Y-4.2812
T4
X4.675Y-4.35
X4.675Y-4.45
X4.775Y-4.35
X4.775Y-4.45
X4.875Y-4.35
X4.875Y-4.45
X4.975Y-4.35
X4.975Y-4.45
X5.075Y-4.35
X5.075Y-4.45
T5
X5.9Y-4.425
X6.0969Y-4.425
T6
X4.3Y-2.725
X4.3Y-4.475
X6.7Y-2.725
X6.7Y-4.475
T0
M30
